<svg width="21" height="21" viewBox="0 0 21 21" fill="none" xmlns="http://www.w3.org/2000/svg">
<path fill-rule="evenodd" clip-rule="evenodd" d="M6.70049 14.299C-0.197501 7.40022 0.78338 4.24115 1.51055 3.22316C1.60396 3.05862 3.90647 -0.388121 6.37459 1.63407C12.5008 6.67945 4.7451 5.96611 9.8894 11.1113C15.0348 16.2554 14.3214 8.49995 19.3659 14.6249C21.3882 17.094 17.9413 19.3964 17.7778 19.4888C16.7598 20.217 13.5995 21.1978 6.70049 14.299Z" stroke="white" stroke-linecap="round" stroke-linejoin="round"/>
<path d="M13 6.33262C13 6.33262 13.5278 6.19513 13.9576 6.62498C14.3875 7.05483 14.1581 7.49066 14.1581 7.49066" stroke="white" stroke-width="0.5"/>
<path d="M13 4.912C13 4.912 14.1594 4.09995 15.2179 5.31469C16.2763 6.52944 15.5048 7.41686 15.5048 7.41686" stroke="white" stroke-width="0.5"/>
<path d="M13 3.41358C13 3.41358 14.7971 2.15492 16.4377 4.03775C18.0782 5.92057 16.8825 7.29606 16.8825 7.29606" stroke="white" stroke-width="0.5"/>
</svg>
