<svg width="11" height="21" viewBox="0 0 11 21" fill="none" xmlns="http://www.w3.org/2000/svg">
<path d="M0.33871 11.1846H2.64065V20.6613C2.64065 20.8484 2.79225 21 2.97936 21H6.88238C7.06948 21 7.22109 20.8484 7.22109 20.6613V11.2292H9.86736C10.0394 11.2292 10.1842 11.1001 10.2038 10.9292L10.6057 7.44037C10.6168 7.34438 10.5864 7.24825 10.5222 7.17624C10.4579 7.10416 10.3659 7.06291 10.2693 7.06291H7.22122V4.87593C7.22122 4.21666 7.57619 3.88236 8.27637 3.88236C8.37615 3.88236 10.2693 3.88236 10.2693 3.88236C10.4564 3.88236 10.608 3.73068 10.608 3.54365V0.341216C10.608 0.154113 10.4564 0.00250645 10.2693 0.00250645H7.52274C7.50337 0.00155806 7.46035 0 7.39694 0C6.92038 0 5.26389 0.0935516 3.95538 1.29733C2.50557 2.6313 2.7071 4.22852 2.75527 4.50545V7.06284H0.33871C0.151606 7.06284 0 7.21445 0 7.40155V10.8458C0 11.0329 0.151606 11.1846 0.33871 11.1846Z" fill="white"/>
</svg>
