<svg width="15" height="15" viewBox="0 0 15 15" fill="none" xmlns="http://www.w3.org/2000/svg">
<path d="M12.625 1.5625H11.125C10.6769 1.5625 10.3125 1.92688 10.3125 2.375V3.875C10.3125 4.32312 10.6769 4.6875 11.125 4.6875H12.625C13.0731 4.6875 13.4375 4.32312 13.4375 3.875V2.375C13.4375 1.92688 13.0731 1.5625 12.625 1.5625ZM12.8125 3.875C12.8125 3.97844 12.7284 4.0625 12.625 4.0625H11.125C11.0216 4.0625 10.9375 3.97844 10.9375 3.875V2.375C10.9375 2.27156 11.0216 2.1875 11.125 2.1875H12.625C12.7284 2.1875 12.8125 2.27156 12.8125 2.375V3.875Z" fill="white"/>
<path d="M11.8125 0H3.1875C1.43 0 0 1.43406 0 3.19719V5.3125V5.9375V11.4906C0 13.2534 1.43 14.6875 3.1875 14.6875H11.8125C13.57 14.6875 15 13.2534 15 11.4906V5.9375V5.3125V3.19719C15 1.43406 13.57 0 11.8125 0ZM14.375 11.4906C14.375 12.9088 13.2253 14.0625 11.8125 14.0625H3.1875C1.77437 14.0625 0.625 12.9088 0.625 11.4906V5.9375H4.44406C3.63125 6.73219 3.125 7.83875 3.125 9.0625C3.125 11.475 5.0875 13.4375 7.5 13.4375C9.9125 13.4375 11.875 11.475 11.875 9.0625C11.875 7.83875 11.3687 6.73219 10.5559 5.9375H14.375V11.4906ZM11.25 9.0625C11.25 11.1303 9.56781 12.8125 7.5 12.8125C5.43219 12.8125 3.75 11.1303 3.75 9.0625C3.75 6.99469 5.43219 5.3125 7.5 5.3125C9.56781 5.3125 11.25 6.99469 11.25 9.0625ZM9.74187 5.3125C9.08531 4.91844 8.32 4.6875 7.5 4.6875C6.68 4.6875 5.91469 4.91844 5.25813 5.3125H0.625V3.19719C0.625 1.77875 1.77469 0.625 3.1875 0.625H11.8125C13.2253 0.625 14.375 1.77875 14.375 3.19719V5.3125H9.74187Z" fill="white"/>
<path d="M4.6875 9.0625C4.6875 10.6131 5.94906 11.875 7.5 11.875C9.05094 11.875 10.3125 10.6131 10.3125 9.0625C10.3125 7.51188 9.05094 6.25 7.5 6.25C5.94906 6.25 4.6875 7.51188 4.6875 9.0625ZM9.6875 9.0625C9.6875 10.2687 8.70594 11.25 7.5 11.25C6.29406 11.25 5.3125 10.2687 5.3125 9.0625C5.3125 7.85625 6.29406 6.875 7.5 6.875C8.70594 6.875 9.6875 7.85625 9.6875 9.0625Z" fill="white"/>
</svg>
