<svg width="30" height="27" viewBox="0 0 30 27" fill="none" xmlns="http://www.w3.org/2000/svg">
<path d="M3.83482 0H27.5C29.8469 2 28.8348 8.5 28.8348 8.5C28.3348 7 28.2304 6.5 27.2304 6H1.52588e-05C-1.53282e-05 5 0.334793 0 3.83482 0Z" fill="black"/>
<path d="M25.217 27H1.55183C-0.795067 25 0.217056 18.5 0.217056 18.5C0.717056 20 0.821486 20.5 1.82149 21H29.0518C29.0519 22 28.7171 27 25.217 27Z" fill="black"/>
<path d="M1.52588e-05 8.5C0.39054 9.09098 0.331684 10.0133 1.33168 10.5177H28.0271C28.9268 10.9335 29 11.4379 29 12.4468V18.5C28.4268 17.4911 28.4268 16.9867 27.4268 16.571H1.33168C1.33168 16.571 0.926834 16.4823 0.426834 15.9778C0.0732807 15.6211 1.52588e-05 14.5532 1.52588e-05 14.5532V8.5Z" fill="black"/>
</svg>
