<svg width="33" height="33" viewBox="0 0 33 33" fill="none" xmlns="http://www.w3.org/2000/svg">
<path fill-rule="evenodd" clip-rule="evenodd" d="M4.46552 28.4002C4.4682 27.3179 5.0832 26.2597 6.08492 25.0754L0.292118 21.4122C-0.0731214 21.2538 -0.0650646 21.0309 0.147097 20.7677L1.37441 19.7203C1.59731 19.5833 1.83364 19.5242 2.08877 19.5941L9.2378 20.8026L15.1944 14.3518L1.28847 4.94411C0.936658 4.73732 0.907117 4.50367 1.26967 4.23242L3.2758 2.6318L21.4035 7.72639L26.7586 2.00069C28.5552 0.445723 30.3008 -0.249849 31.6409 0.0804807C32.3795 0.263102 32.64 0.483321 32.8683 1.17621C33.3114 2.53512 32.6239 4.36133 30.9991 6.24125L25.2734 11.5963L30.368 29.7242L28.7674 31.7303C28.4961 32.0902 28.2625 32.0606 28.0557 31.7115L18.6454 17.8081L12.1946 23.7621L13.4031 30.9112C13.473 31.1637 13.4166 31.4 13.2769 31.6256L12.2295 32.8529C11.969 33.0651 11.7434 33.0731 11.585 32.7079L7.92186 26.915C6.73215 27.9194 5.67403 28.5344 4.58637 28.5344C4.487 28.5318 4.46552 28.4969 4.46552 28.4002Z" fill="black"/>
</svg>
