<svg width="20" height="37" viewBox="0 0 20 37" fill="none" xmlns="http://www.w3.org/2000/svg">
<path d="M10 0C4.4796 0 0 4.47964 0 10C0 10.6904 0.5596 11.25 1.25 11.25C1.9404 11.25 2.5 10.6904 2.5 10C2.5 5.8604 5.8604 2.5 10 2.5C14.1396 2.5 17.5 5.8604 17.5 10C17.5 11.8754 17.0292 12.9403 16.3989 13.7446C15.889 14.3954 15.2935 14.8788 14.5509 15.4815C14.2472 15.7281 13.9187 15.9947 13.5615 16.3009C12.3916 17.3037 11.1534 18.5676 10.2301 20.5903C9.3147 22.5953 8.75 25.2533 8.75 29V29.25C8.75 29.9404 9.3096 30.5 10 30.5C10.6904 30.5 11.25 29.9404 11.25 29.25V29C11.25 25.4967 11.779 23.2172 12.5043 21.6285C13.2216 20.0574 14.1709 19.0713 15.1885 18.1991C15.4213 17.9995 15.6744 17.7943 15.9373 17.5811C16.7553 16.9179 17.669 16.1771 18.3667 15.2866C19.377 13.9972 20 12.3746 20 10C20 4.47964 15.5204 0 10 0Z" fill="#212121"/>
<path d="M10 36.5C10.8284 36.5 11.5 35.8284 11.5 35C11.5 34.1716 10.8284 33.5 10 33.5C9.1716 33.5 8.5 34.1716 8.5 35C8.5 35.8284 9.1716 36.5 10 36.5Z" fill="#212121"/>
</svg>
