<svg width="17" height="17" viewBox="0 0 17 17" fill="none" xmlns="http://www.w3.org/2000/svg">
<path d="M16.1299 10.2845L14.9367 10.4869C14.8124 10.8882 14.6526 11.2753 14.4573 11.6447L15.1604 12.6284C15.4587 13.0474 15.4126 13.6192 15.0468 13.9814L13.9885 15.0397C13.7896 15.2386 13.5268 15.3487 13.2463 15.3487C13.0261 15.3487 12.8166 15.2812 12.639 15.1533L11.6518 14.4502C11.2682 14.6526 10.8669 14.8195 10.4514 14.9438L10.2526 16.1228C10.1673 16.6307 9.73052 17 9.21558 17H7.72049C7.20556 17 6.76875 16.6307 6.68352 16.1228L6.47754 14.9154C6.0798 14.7911 5.69271 14.6277 5.32338 14.4289L4.34677 15.132C4.16921 15.2599 3.95613 15.3273 3.73595 15.3273C3.4554 15.3273 3.18905 15.2173 2.99373 15.0184L1.9319 13.9601C1.56967 13.5979 1.51995 13.0261 1.81826 12.6071L2.52851 11.6091C2.33319 11.2363 2.17694 10.8492 2.05619 10.4479L0.877167 10.249C0.369334 10.1638 0 9.72697 0 9.21203V7.71694C0 7.202 0.369334 6.7652 0.877167 6.67997L2.0846 6.47399C2.2089 6.07625 2.37226 5.68916 2.57113 5.31982L1.87153 4.34677C1.57322 3.92772 1.61939 3.35596 1.98517 2.99373L3.04345 1.93545C3.24232 1.73658 3.50512 1.62649 3.78567 1.62649C4.00585 1.62649 4.21537 1.69396 4.39294 1.82181L5.39085 2.53207C5.74953 2.34385 6.12597 2.19114 6.51306 2.0704L6.71193 0.877166C6.79716 0.369332 7.23397 -4.9564e-07 7.7489 -4.9564e-07H9.24754C9.76248 -4.9564e-07 10.1993 0.369332 10.2845 0.877166L10.4869 2.0704C10.8882 2.19469 11.2753 2.3545 11.6447 2.54982L12.6284 1.84667C12.8059 1.71882 13.019 1.65135 13.2392 1.65135C13.5197 1.65135 13.7825 1.76144 13.9814 1.96031L15.0397 3.01859C15.4019 3.38082 15.4516 3.95258 15.1533 4.37163L14.4502 5.35889C14.6455 5.73177 14.8089 6.11886 14.9296 6.51661L16.1228 6.71548C16.6307 6.80071 17 7.23752 17 7.75245V9.24755C17.0071 9.76248 16.6378 10.1993 16.1299 10.2845ZM16.0483 7.75245C16.0483 7.70629 16.0163 7.66722 15.9701 7.66012L14.4786 7.41153C14.2904 7.37957 14.1412 7.24107 14.095 7.05995C13.9601 6.53791 13.7541 6.03718 13.4771 5.57197C13.3812 5.40861 13.3883 5.20618 13.4984 5.04993L14.3756 3.81408C14.4005 3.77857 14.3969 3.7253 14.3649 3.69334L13.3067 2.63505C13.2818 2.61019 13.2569 2.60664 13.2392 2.60664C13.2179 2.60664 13.2001 2.61375 13.1859 2.6244L11.9536 3.50157C11.8009 3.61166 11.5949 3.61876 11.4316 3.52287C10.9664 3.24587 10.4656 3.0399 9.9436 2.90495C9.75893 2.85878 9.62043 2.70608 9.59202 2.52141L9.33988 1.02987C9.33278 0.983705 9.29371 0.951743 9.24754 0.951743H7.75245C7.70629 0.951743 7.66722 0.983705 7.66012 1.02987L7.41153 2.52141C7.37957 2.70963 7.24107 2.85878 7.05995 2.90495C6.55212 3.03635 6.06204 3.23877 5.60393 3.50157C5.52935 3.54418 5.44412 3.56549 5.36244 3.56549C5.26656 3.56549 5.16712 3.53708 5.08544 3.47671L3.84249 2.59244C3.82473 2.58178 3.80698 2.57468 3.78922 2.57468C3.77502 2.57468 3.74661 2.57823 3.72175 2.60309L2.66346 3.66137C2.6315 3.69334 2.62795 3.74305 2.65281 3.78212L3.52643 5.00731C3.63652 5.16357 3.64362 5.36954 3.54773 5.5329C3.27073 5.99457 3.05766 6.4953 2.92271 7.01734C2.87299 7.19845 2.72384 7.33695 2.53917 7.36892L1.03698 7.62461C0.990808 7.63171 0.958847 7.67077 0.958847 7.71694V9.21203C0.958847 9.2582 0.990808 9.29726 1.03698 9.30437L2.51786 9.55296C2.70608 9.58492 2.85878 9.72342 2.90495 9.90808C3.03635 10.4301 3.23877 10.9344 3.51222 11.3996C3.60811 11.563 3.59745 11.7654 3.48736 11.9181L2.60309 13.1611C2.57823 13.1966 2.58178 13.2498 2.61375 13.2818L3.67203 14.3401C3.69689 14.3649 3.72175 14.3685 3.7395 14.3685C3.76081 14.3685 3.77857 14.3614 3.79277 14.3507L5.01797 13.4771C5.17422 13.367 5.3802 13.3599 5.54356 13.4558C6.00522 13.7328 6.50595 13.9459 7.02799 14.0808C7.20911 14.1306 7.34761 14.2797 7.37957 14.4644L7.63526 15.9666C7.64236 16.0127 7.68143 16.0447 7.7276 16.0447H9.22269C9.26885 16.0447 9.30792 16.0127 9.31502 15.9666L9.56361 14.4857C9.59557 14.2975 9.73407 14.1448 9.91874 14.0986C10.455 13.9637 10.9664 13.7541 11.4422 13.4736C11.6056 13.3777 11.808 13.3848 11.9643 13.4949L13.1895 14.3756C13.2072 14.3863 13.225 14.3934 13.2427 14.3934C13.2569 14.3934 13.2854 14.3898 13.3102 14.3649L14.3685 13.3067C14.4005 13.2747 14.404 13.225 14.3792 13.1859L13.502 11.9536C13.3919 11.8009 13.3848 11.5949 13.4807 11.4316C13.7577 10.9664 13.9637 10.4656 14.0986 9.9436C14.1448 9.75893 14.2975 9.62043 14.4821 9.59202L15.9737 9.33988C16.0198 9.33278 16.0518 9.29371 16.0518 9.24755V7.75245H16.0483V7.75245Z" fill="black"/>
<path d="M8.50185 12.1703C6.47762 12.1703 4.83337 10.526 4.83337 8.50178C4.83337 6.47755 6.47762 4.8333 8.50185 4.8333C10.5261 4.8333 12.1703 6.47755 12.1703 8.50178C12.1703 10.526 10.5261 12.1703 8.50185 12.1703ZM8.50185 5.79215C7.00676 5.79215 5.79222 7.00669 5.79222 8.50178C5.79222 9.99687 7.00676 11.2114 8.50185 11.2114C9.99694 11.2114 11.2115 9.99687 11.2115 8.50178C11.2115 7.00669 9.99694 5.79215 8.50185 5.79215Z" fill="white"/>
</svg>
