<svg width="18" height="22" viewBox="0 0 18 22" fill="none" xmlns="http://www.w3.org/2000/svg">
<path d="M17.1441 18.5964L15.9093 4.68131C15.8871 4.40594 15.6562 4.19719 15.3764 4.19719H12.7737C12.7692 1.88318 10.886 0 8.57204 0C6.25803 0 4.37485 1.88318 4.37041 4.19719H1.7677C1.49233 4.19719 1.26138 4.40594 1.23473 4.68131L0 18.5964C0 18.6142 0 18.6275 0 18.6453C0 20.1954 1.42571 21.4567 3.17565 21.4567H13.9684C15.7184 21.4567 17.1441 20.1954 17.1441 18.6453C17.1441 18.6275 17.1441 18.6142 17.1441 18.5964ZM8.57204 1.06595C10.2998 1.06595 11.7033 2.46946 11.7077 4.19719H5.43636C5.4408 2.46946 6.84431 1.06595 8.57204 1.06595ZM13.9684 20.3863H3.17565C2.02087 20.3863 1.07928 19.618 1.06595 18.6631L2.25627 5.26314H4.37041V7.133C4.37041 7.42614 4.61025 7.66598 4.90338 7.66598C5.19652 7.66598 5.43636 7.42614 5.43636 7.133V5.26314H11.7077V7.133C11.7077 7.42614 11.9476 7.66598 12.2407 7.66598C12.5338 7.66598 12.7737 7.42614 12.7737 7.133V5.26314H14.8878L16.0781 18.6675C16.0648 19.618 15.1232 20.3863 13.9684 20.3863Z" fill="white"/>
</svg>
