<svg width="37" height="47" viewBox="0 0 37 47" fill="none" xmlns="http://www.w3.org/2000/svg">
<path d="M37 40.1345L34.3352 10.1031C34.2873 9.50881 33.7889 9.05829 33.185 9.05829H27.5679C27.5583 4.06425 23.494 0 18.5 0C13.506 0 9.44171 4.06425 9.43212 9.05829H3.81503C3.22073 9.05829 2.72228 9.50881 2.66477 10.1031L0 40.1345C0 40.1728 0 40.2016 0 40.2399C0 43.5852 3.07694 46.3075 6.85363 46.3075H30.1464C33.9231 46.3075 37 43.5852 37 40.2399C37 40.2016 37 40.1728 37 40.1345ZM18.5 2.30052C22.2288 2.30052 25.2578 5.32953 25.2674 9.05829H11.7326C11.7422 5.32953 14.7712 2.30052 18.5 2.30052ZM30.1464 43.9974H6.85363C4.3614 43.9974 2.32927 42.3391 2.30052 40.2782L4.86943 11.3588H9.43212V15.3943C9.43212 16.0269 9.94974 16.5446 10.5824 16.5446C11.215 16.5446 11.7326 16.0269 11.7326 15.3943V11.3588H25.2674V15.3943C25.2674 16.0269 25.785 16.5446 26.4176 16.5446C27.0503 16.5446 27.5679 16.0269 27.5679 15.3943V11.3588H32.1306L34.6995 40.2878C34.6707 42.3391 32.6386 43.9974 30.1464 43.9974Z" fill="black"/>
</svg>
