<svg width="45" height="39" viewBox="0 0 45 39" fill="none" xmlns="http://www.w3.org/2000/svg">
<path d="M31.6842 21.2048H25.6243C23.9659 21.2048 22.6172 22.5534 22.6172 24.2119V28.8593C22.6172 30.5178 23.9659 31.8664 25.6243 31.8664H31.6842C33.3426 31.8664 34.6913 30.5178 34.6913 28.8593V24.2119C34.6913 22.5534 33.3426 21.2048 31.6842 21.2048ZM32.5043 28.8593C32.5043 29.3149 32.1307 29.6794 31.6842 29.6794H25.6243C25.1687 29.6794 24.8042 29.3058 24.8042 28.8593V24.2119C24.8042 23.7563 25.1778 23.3918 25.6243 23.3918H31.6842C32.1398 23.3918 32.5043 23.7654 32.5043 24.2119V28.8593Z" fill="black"/>
<path d="M44.5966 12.7575C44.5966 12.5661 44.551 12.3839 44.4508 12.2199L37.8169 0.555863C37.6255 0.2187 37.261 0 36.8692 0H7.71829C7.32645 0 6.96195 0.209588 6.77059 0.555863L0.1458 12.2199C0.054675 12.3839 0 12.5661 0 12.7575C0 15.3728 1.57646 17.6145 3.82725 18.6077V37.8442C3.82725 38.4457 4.31933 38.9377 4.92075 38.9377H10.9623C10.9715 38.9377 10.9806 38.9377 10.9897 38.9377H19.4643C19.4734 38.9377 19.4825 38.9377 19.4916 38.9377H39.6667C40.2681 38.9377 40.7602 38.4457 40.7602 37.8442V18.7444C40.7602 18.6989 40.7602 18.6624 40.7511 18.626C43.011 17.6327 44.5966 15.3819 44.5966 12.7575ZM8.35616 2.19611H36.2313L41.4163 11.3177H3.18026L8.35616 2.19611ZM31.7388 13.4956C31.3926 15.4639 29.6703 16.9584 27.6018 16.9584C25.5332 16.9584 23.811 15.4639 23.4647 13.4956H31.7388ZM21.141 13.4956C20.7947 15.4639 19.0725 16.9584 17.0039 16.9584C14.9354 16.9584 13.2131 15.4639 12.8577 13.4956H21.141ZM2.2599 13.4956H10.5432C10.1969 15.4639 8.46551 16.9584 6.39698 16.9584C4.32844 16.9675 2.60618 15.4639 2.2599 13.4956ZM18.3708 36.7507H12.0832V24.95C12.0832 24.0935 12.7757 23.3918 13.6414 23.3918H16.8217C17.6783 23.3918 18.3799 24.0843 18.3799 24.95V36.7507H18.3708ZM38.5732 36.7507H20.5578V24.95C20.5578 22.8906 18.8811 21.2048 16.8126 21.2048H13.6323C11.5729 21.2048 9.88707 22.8815 9.88707 24.95V36.7598H6.01425V19.1454C6.14183 19.1545 6.2694 19.1545 6.39698 19.1545C8.6022 19.1545 10.5523 18.0336 11.7005 16.3296C12.8486 18.0336 14.7987 19.1545 17.0039 19.1545C19.2092 19.1545 21.1501 18.0336 22.3074 16.3296C23.4556 18.0336 25.4057 19.1545 27.6018 19.1545C29.807 19.1545 31.748 18.0336 32.8961 16.3296C34.0443 18.0336 35.9944 19.1545 38.1996 19.1545C38.3272 19.1545 38.4456 19.1454 38.5732 19.1454V36.7507ZM38.1996 16.9675C36.1311 16.9675 34.4088 15.473 34.0625 13.5047H42.3458C41.9904 15.4639 40.2682 16.9675 38.1996 16.9675Z" fill="black"/>
</svg>
