<svg width="54" height="38" viewBox="0 0 54 38" fill="none" xmlns="http://www.w3.org/2000/svg">
<path d="M7.83179 19.7584L6.55551 21.0345L9.08739 22.3111L10.3639 24.8429L11.6399 23.5669L10.8988 22.0972L13.6423 19.7365L15.9721 24.3575L17.6051 22.7245L16.0601 17.6562L16.992 16.8544C17.0071 16.8401 17.0229 16.8253 17.0376 16.8107C17.7108 16.1372 17.7155 15.0406 17.0368 14.3619C16.3427 13.6678 15.2124 13.6885 14.5441 14.4066C14.0981 14.9245 13.9585 15.0873 13.7427 15.3382L8.67438 13.7933L7.04109 15.4263L11.6621 17.7561L9.30139 20.4995L7.83179 19.7584Z" fill="black"/>
<path d="M52.1177 12.9793C53.1573 12.9793 54 12.1365 54 11.097V1.8823C54 0.842695 53.1572 9.89775e-09 52.1177 9.89775e-09C50.2998 9.89775e-09 2.8293 9.89775e-09 1.88241 9.89775e-09C0.842801 -0.000105459 0 0.842695 0 1.8823V35.4183C0 36.4579 0.842801 37.3006 1.8823 37.3006C2.80979 37.3006 50.2687 37.3006 52.1176 37.3006C53.1572 37.3006 53.9999 36.4578 53.9999 35.4183V26.2036C53.9999 25.164 53.1571 24.3213 52.1176 24.3213C48.9907 24.3213 46.4468 21.7774 46.4468 18.6505C46.4468 15.5233 48.9907 12.9793 52.1177 12.9793ZM21.7319 33.536H3.76471V3.76471H21.732V33.536H21.7319ZM50.2353 27.8973V33.536H25.4966V3.76471H50.2354V9.40338C45.9312 10.278 42.6821 14.0919 42.6821 18.6504C42.6821 23.2088 45.9312 27.0227 50.2353 27.8973Z" fill="black"/>
<path d="M39.4974 10.0909H30.7956C29.756 10.0909 28.9133 10.9337 28.9133 11.9732C28.9133 13.0128 29.7561 13.8556 30.7956 13.8556H39.4974C40.537 13.8556 41.3797 13.0128 41.3797 11.9732C41.3797 10.9336 40.5369 10.0909 39.4974 10.0909Z" fill="black"/>
<path d="M30.7955 20.5328H38.2424C39.282 20.5328 40.1247 19.69 40.1247 18.6505C40.1247 17.611 39.2819 16.7682 38.2424 16.7682H30.7955C29.7559 16.7682 28.9132 17.611 28.9132 18.6505C28.9132 19.69 29.7559 20.5328 30.7955 20.5328Z" fill="black"/>
<path d="M39.4974 23.4451H30.7956C29.756 23.4451 28.9133 24.2879 28.9133 25.3274C28.9133 26.3669 29.7561 27.2097 30.7956 27.2097H39.4974C40.537 27.2097 41.3797 26.3669 41.3797 25.3274C41.3797 24.2879 40.5369 23.4451 39.4974 23.4451Z" fill="black"/>
</svg>
