<svg width="14" height="12" viewBox="0 0 14 12" fill="none" xmlns="http://www.w3.org/2000/svg">
<path d="M13.6837 1.31349C13.4637 1.41035 13.2376 1.4921 13.0065 1.55846C13.2801 1.25129 13.4887 0.889858 13.616 0.494346C13.6445 0.405692 13.6149 0.308652 13.5416 0.250671C13.4683 0.192644 13.3664 0.185694 13.2857 0.233182C12.795 0.522148 12.2656 0.729815 11.7105 0.851249C11.1513 0.308742 10.3918 0 9.60666 0C7.94935 0 6.60101 1.33869 6.60101 2.98415C6.60101 3.11374 6.60928 3.24262 6.62563 3.3697C4.56907 3.19042 2.65712 2.1868 1.34419 0.587753C1.2974 0.530758 1.22532 0.500041 1.15152 0.505915C1.07768 0.511655 1.01133 0.553 0.974025 0.616542C0.707736 1.07022 0.566958 1.58909 0.566958 2.11702C0.566958 2.83608 0.825524 3.51831 1.28227 4.0514C1.14339 4.00364 1.00862 3.94396 0.879993 3.87306C0.810936 3.8349 0.726659 3.83548 0.658055 3.87454C0.589405 3.9136 0.546363 3.98544 0.544557 4.06396C0.544241 4.07719 0.544241 4.09042 0.544241 4.10382C0.544241 5.17713 1.12605 6.14345 2.01556 6.67013C1.93914 6.66255 1.86277 6.65156 1.78689 6.63717C1.70867 6.62232 1.62823 6.64954 1.57548 6.70878C1.52264 6.76797 1.50516 6.85048 1.5295 6.92582C1.85875 7.94644 2.70644 8.69715 3.73122 8.92603C2.88127 9.45459 1.90929 9.73145 0.888935 9.73145C0.67603 9.73145 0.461906 9.71902 0.252343 9.69441C0.148239 9.68212 0.0486968 9.74315 0.0132427 9.84145C-0.0222113 9.93979 0.0153655 10.0494 0.103933 10.1058C1.41474 10.9403 2.93041 11.3813 4.487 11.3813C7.54707 11.3813 9.46136 9.94862 10.5284 8.7467C11.8589 7.24801 12.622 5.26431 12.622 3.30428C12.622 3.2224 12.6207 3.13971 12.6182 3.05728C13.1432 2.6646 13.5951 2.18935 13.9629 1.64313C14.0188 1.56017 14.0127 1.45053 13.948 1.37416C13.8834 1.29775 13.7756 1.27304 13.6837 1.31349Z" fill="white"/>
</svg>
