<svg width="15" height="11" viewBox="0 0 15 11" fill="none" xmlns="http://www.w3.org/2000/svg">
<path d="M11.9941 0H2.97715C1.3355 0 0 1.33978 0 2.98631V8.01269C0 9.65953 1.3355 10.999 2.97715 10.999H11.9941C13.6358 10.999 14.9713 9.65922 14.9713 8.01269V2.98631C14.9713 1.33978 13.6358 0 11.9941 0ZM14.3602 8.01299C14.3602 9.32283 13.2988 10.3882 11.9941 10.3882H2.97715C1.67251 10.3882 0.611073 9.32252 0.611073 8.01299V2.98631C0.611073 1.67678 1.67251 0.611073 2.97715 0.611073H11.9941C13.2988 0.611073 14.3602 1.67678 14.3602 2.98631V8.01299Z" fill="white"/>
<path d="M10.1927 5.38904L5.9595 2.90962C5.86539 2.85462 5.74837 2.8537 5.65335 2.90809C5.55833 2.96247 5.49966 3.06361 5.49966 3.17329V8.13184C5.49966 8.24122 5.55833 8.34266 5.65304 8.39705C5.7001 8.42393 5.75265 8.43738 5.8052 8.43738C5.85867 8.43738 5.91183 8.42332 5.9595 8.39552L10.1927 5.9167C10.2862 5.86201 10.3439 5.76149 10.3439 5.65303C10.3439 5.54456 10.2865 5.44373 10.1927 5.38904ZM6.11074 7.59868V3.70615L9.43375 5.65272L6.11074 7.59868Z" fill="white"/>
</svg>
